<svg data-v-423bf9ae="" xmlns="http://www.w3.org/2000/svg" viewBox="0 0 332 90" class="iconLeft"><!----><!----><!----><g data-v-423bf9ae="" id="3a110a3e-568c-4007-825b-5a7bf59fab44" fill="#261624" transform="matrix(4.452690040922712,0,0,4.452690040922712,114.38438219993967,15.801485490911752)"><path d="M0.18 1.34L7.25 1.34L7.25 3.29L5.03 3.29L5.03 10.50L2.42 10.50L2.42 3.29L0.18 3.29L0.18 1.34ZM14.06 5.77L14.06 10.50L12.05 10.50L11.80 9.39Q11.35 10.05 10.81 10.35Q10.26 10.65 9.49 10.65L9.49 10.65Q8.95 10.65 8.45 10.52Q7.95 10.39 7.57 10.13Q7.20 9.87 6.97 9.48Q6.75 9.09 6.75 8.57L6.75 8.57Q6.73 7.87 6.95 7.39Q7.17 6.92 7.55 6.61Q7.94 6.30 8.44 6.13Q8.95 5.96 9.50 5.90Q10.05 5.84 10.62 5.84Q11.19 5.85 11.69 5.88L11.69 5.88L11.69 5.84Q11.69 5.29 11.40 5.03Q11.12 4.77 10.69 4.70Q10.26 4.63 9.75 4.71Q9.24 4.79 8.79 4.91Q8.34 5.04 8.02 5.17Q7.70 5.29 7.66 5.32L7.66 5.32L7.66 3.58Q7.67 3.57 7.93 3.49Q8.19 3.40 8.58 3.30Q8.97 3.21 9.45 3.12Q9.93 3.04 10.39 3.04L10.39 3.04Q10.85 3.04 11.48 3.15Q12.11 3.26 12.68 3.56Q13.26 3.86 13.66 4.40Q14.06 4.93 14.06 5.77L14.06 5.77ZM11.68 7.52L11.68 7.25Q11.21 7.25 10.76 7.26Q10.30 7.27 9.93 7.34Q9.56 7.42 9.34 7.61Q9.11 7.80 9.11 8.16L9.11 8.16Q9.11 8.55 9.35 8.77Q9.59 8.99 9.88 8.99L9.88 8.99Q10.28 8.99 10.61 8.88Q10.93 8.76 11.17 8.56Q11.41 8.36 11.54 8.09Q11.68 7.83 11.68 7.52L11.68 7.52ZM20.30 3.04L20.30 3.04Q21.13 3.04 21.75 3.36Q22.37 3.68 22.79 4.23Q23.21 4.77 23.43 5.47Q23.65 6.17 23.65 6.93L23.65 6.93Q23.65 7.69 23.43 8.37Q23.21 9.04 22.79 9.55Q22.37 10.05 21.75 10.35Q21.13 10.65 20.30 10.65L20.30 10.65Q19.70 10.65 19.26 10.48Q18.82 10.30 18.52 10.09L18.52 10.09Q18.17 9.84 17.92 9.53L17.92 9.53L17.56 10.50L15.46 10.50L15.46 1.55L17.98 1.55L17.98 4.21Q18.23 3.88 18.59 3.63L18.59 3.63Q18.90 3.40 19.33 3.22Q19.75 3.04 20.30 3.04ZM19.50 8.75L19.50 8.75Q19.75 8.75 20.02 8.67Q20.29 8.60 20.50 8.39Q20.72 8.19 20.86 7.83Q21 7.46 21 6.89L21 6.89Q21 6.31 20.86 5.94Q20.72 5.57 20.50 5.35Q20.29 5.14 20.02 5.05Q19.75 4.97 19.50 4.97L19.50 4.97Q19.25 4.97 18.98 5.05Q18.70 5.14 18.48 5.35Q18.26 5.57 18.12 5.94Q17.98 6.31 17.98 6.89L17.98 6.89Q17.98 7.46 18.12 7.83Q18.26 8.19 18.48 8.39Q18.70 8.60 18.98 8.67Q19.25 8.75 19.50 8.75ZM27.64 10.50L25.12 10.50L25.12 3.22L27.64 3.22L27.64 10.50ZM27.62 1.04L27.62 1.04Q27.62 1.30 27.52 1.53Q27.43 1.76 27.26 1.93Q27.09 2.10 26.87 2.20Q26.64 2.30 26.39 2.30L26.39 2.30Q25.86 2.30 25.49 1.93Q25.13 1.57 25.13 1.04L25.13 1.04Q25.13 0.78 25.23 0.56Q25.33 0.34 25.49 0.17Q25.66 0.01 25.89-0.08Q26.12-0.18 26.39-0.18L26.39-0.18Q26.89-0.18 27.26 0.17Q27.62 0.53 27.62 1.04ZM34.68 3.04L34.55 5.22Q33.74 5.04 33.24 5.24Q32.73 5.43 32.45 5.81Q32.16 6.19 32.05 6.64Q31.95 7.10 31.95 7.41L31.95 7.41L31.95 10.50L29.46 10.50L29.46 3.22L31.37 3.22L31.75 4.55Q31.75 4.55 31.88 4.31Q32.00 4.07 32.34 3.79Q32.68 3.51 33.24 3.28Q33.81 3.04 34.68 3.04L34.68 3.04ZM39.00 8.67L39.00 8.67Q39.06 8.67 39.23 8.68Q39.40 8.69 39.54 8.67L39.54 8.67L39.54 10.56Q39.34 10.60 39.14 10.62Q38.95 10.64 38.79 10.65L38.79 10.65Q38.61 10.67 38.43 10.65L38.43 10.65Q37.90 10.65 37.43 10.58Q36.96 10.50 36.60 10.23Q36.25 9.97 36.04 9.46Q35.83 8.96 35.83 8.09L35.83 8.09L35.83 1.55L38.35 1.55L38.35 8.04Q38.37 8.39 38.54 8.53Q38.70 8.67 39.00 8.67ZM46.23 3.22L48.76 3.22Q48.01 5.21 47.43 6.69Q46.86 8.18 46.40 9.25Q45.93 10.32 45.58 11.03Q45.22 11.73 44.88 12.17Q44.55 12.61 44.23 12.84Q43.90 13.06 43.53 13.17L43.53 13.17Q43.29 13.24 42.95 13.27Q42.60 13.29 42.27 13.29Q41.94 13.30 41.72 13.29Q41.50 13.29 41.50 13.29L41.50 13.29L41.51 11.37L42.29 11.35Q42.69 11.35 42.91 11.20Q43.13 11.05 43.25 10.85L43.25 10.85Q43.39 10.63 43.41 10.35L43.41 10.35L40.45 3.22L43.12 3.22L44.70 7.99L46.23 3.22Z"></path></g><defs data-v-423bf9ae=""><linearGradient data-v-423bf9ae="" gradientTransform="rotate(25)" id="865ac697-58ea-40c0-ba87-4c1f8836d555" x1="0%" y1="0%" x2="100%" y2="0%"><stop data-v-423bf9ae="" offset="0%" style="stop-color: rgb(233, 140, 0); stop-opacity: 1;"></stop><stop data-v-423bf9ae="" offset="100%" style="stop-color: rgb(143, 91, 254); stop-opacity: 1;"></stop></linearGradient></defs><g data-v-423bf9ae="" id="9ac50554-0978-4cca-b6ec-3bd80a8b8a2a" transform="matrix(1.260565596486888,0,0,1.260565596486888,-11.00221279949993,-17.72624463113322)" stroke="none" fill="url(#865ac697-58ea-40c0-ba87-4c1f8836d555)"><path d="M84.734 67.274l-.743-22.264a1.317 1.317 0 00-.242-.716L64.897 17.947c-.007-.01-.017-.017-.023-.026a1.383 1.383 0 00-.231-.237 1.38 1.38 0 00-.198-.13 1.435 1.435 0 00-.28-.106c-.034-.009-.067-.019-.102-.025-.015-.002-.027-.007-.042-.01l-21.556-3.1a1.284 1.284 0 00-.406.008c-.053.009-.101.035-.152.05-.084.025-.168.05-.245.092-.014.008-.03.008-.044.016l-6.67 3.916a1.299 1.299 0 00-.591.758L29.841 34.53l-11.045-2.216c-.021-.004-.043-.003-.065-.006a1.744 1.744 0 00-.122-.013c-.036-.001-.071-.002-.106-.001a1.395 1.395 0 00-.229.027 1.228 1.228 0 00-.218.066 1.711 1.711 0 00-.123.056c-.028.016-.056.031-.084.049a1.116 1.116 0 00-.188.144.962.962 0 00-.162.179c-.014.019-.03.033-.043.053l-6.897 10.29c-.109.163-.18.348-.207.542l-1.1 7.72c-.003.021.001.043-.001.064a1.276 1.276 0 00-.001.205c.002.04.004.08.01.12.011.07.032.138.054.206.012.034.019.068.033.102a1.4 1.4 0 00.135.238c.01.013.016.028.026.041l.002.004 25.279 32.789a1.308 1.308 0 001.189.499l8.007-.968c.378-.045.716-.253.928-.568l3.916-5.846 10.04 6.192c.207.127.443.193.686.193.028 0 .058 0 .086-.003l8.158-.544c.083-.006.16-.029.238-.05.028-.007.057-.005.084-.014.004-.001.008-.005.013-.007.12-.04.232-.097.335-.17.023-.017.04-.041.063-.06.073-.06.144-.122.203-.197.029-.038.05-.083.075-.124.033-.054.072-.102.098-.16.006-.013.006-.026.012-.04.019-.047.027-.096.04-.146.021-.074.039-.148.046-.224.001-.019.01-.035.01-.054l.772-17.112a1.307 1.307 0 00-.245-.822L48.198 35.371c-.01-.013-.022-.023-.032-.036-.025-.032-.055-.06-.082-.089a1.57 1.57 0 00-.153-.142c-.032-.025-.067-.047-.102-.069a1.297 1.297 0 00-.514-.185c-.027-.004-.052-.015-.079-.017l-5.449-.402 2.459-1.89 4.615.529 21.553 29.873c.135.187.316.334.526.428l11.965 5.339a1.316 1.316 0 00.546.113 1.306 1.306 0 001.283-1.549zM36.716 20.385l5.309-3.116.542.598 2.021 2.233-1.911 10.355-5.123 3.938-3.646 2.117-1.604-1.025h-.002l-.018-.011 4.432-15.089zM25.32 45.537l1.391-7.17 4.566-.439.724.462-5.923 8.093-.758-.946zm-6.34-10.258l5.166 2.603-1.372 7.069-5.178 2.215-5.436 2.325.731-5.128 6.089-9.084zm24.095 46.922l-6.674.807-23.797-30.867 10.366-4.433.546-.233 1.559 1.99.006.006.003.005 21.741 27.128-3.75 5.597zm16.807-.144l-10.563-6.515-20.702-25.884 9.462-1.193 27.026 33.244-5.223.348zM37.936 45.852l-8.99 1.133 5.823-7.955 3.817-2.217 6.028.444-6.678 8.595z"></path><path d="M81.848 70.877l-10.203-4.86-.332 9.857a1.354 1.354 0 001.917 1.277l8.604-3.971c.434-.2.735-.638.738-1.147a1.27 1.27 0 00-.724-1.156z"></path></g><!----></svg>